# xmcd
#
# Track frame offsets: 
#        150
#        11212
#        23333
#        32739
#        46177
#        56490
#        66457
#        78894
#        92248
#        104318
#        113817
#        123535
#        134543
#        144838
#
# Disc length: 2069 seconds
#
# Revision: 0
# Processed by: cddbd v1.5.2PL0 Copyright (c) Steve Scherf et al.
# Submitted via: ExactAudioCopy v0.99pb4
#
DISCID=b708130e
DTITLE=Ray Price - Big Hits and Favorites Disc 2
DYEAR=2008
DGENRE=Country
TTITLE0=I'll Be There (If You Ever Want Me)
TTITLE1=Release Me
TTITLE2=I Could Love You More
TTITLE3=What If He Don't Love You
TTITLE4=Cold Shoulder
TTITLE5=You Weren't Ashamed To Kiss Me Last Night
TTITLE6=The Wrong Side Of Town
TTITLE7=Leave Here Alone
TTITLE8=The Last Letter
TTITLE9=Much Too Young To Die
TTITLE10=If You Don't, Somebody Else Will
TTITLE11=I'm Alone Because I Love You
TTITLE12=Who Stole That Train
TTITLE13=You Always Get By
EXTD=
EXTT0=
EXTT1=
EXTT2=
EXTT3=
EXTT4=
EXTT5=
EXTT6=
EXTT7=
EXTT8=
EXTT9=
EXTT10=
EXTT11=
EXTT12=
EXTT13=
PLAYORDER=
